<?xml version="1.0" ?><!DOCTYPE svg  PUBLIC '-//W3C//DTD SVG 1.1 Tiny//EN'  'http://www.w3.org/Graphics/SVG/1.1/DTD/svg11-tiny.dtd'><svg baseProfile="tiny" height="30px" version="1.1" viewBox="0 0 32 32" width="30px" fill="#E5B80B" enable-background="" xmlns="http://www.w3.org/2000/svg" xmlns:xlink="http://www.w3.org/1999/xlink"><g id="Guides__x26__Forms"/><g id="Icons"><g><path d="M19.241,11.77l-1.412,1.412C18.552,13.906,19,14.906,19,16.011c0,1.105-0.448,2.105-1.172,2.828l1.412,1.412    C20.327,19.165,21,17.665,21,16.011S20.327,12.857,19.241,11.77z"/><path d="M22.068,8.943l-1.411,1.411C22.105,11.802,23,13.802,23,16.011s-0.895,4.209-2.343,5.657l1.411,1.411    C23.879,21.268,25,18.768,25,16.011S23.879,10.754,22.068,8.943z"/><path d="M14,9.822v12.343L9.329,17H8v-1.989h1.329L14,9.822 M16,7h-2.009L8.5,13.011H6V19h2.5l5.505,6H16V7L16,7z"/></g></g></svg>
